<svg width="16" height="16" viewBox="0 0 16 16" xmlns="http://www.w3.org/2000/svg">
<path d="M15.7424 14.9148L11.6592 10.8315C12.5544 9.75809 13.0947 8.37884 13.0947 6.875C13.0947 3.46316 10.3191 0.6875 6.90723 0.6875C3.49538 0.6875 0.719727 3.46316 0.719727 6.875C0.719727 10.2868 3.49538 13.0625 6.90723 13.0625C8.41107 13.0625 9.79032 12.5222 10.8637 11.627L14.947 15.7103C15.0569 15.8202 15.2009 15.8751 15.3447 15.8751C15.4886 15.8751 15.6326 15.8202 15.7424 15.7103C15.9622 15.4905 15.9622 15.1345 15.7424 14.9148ZM1.84473 6.875C1.84473 4.08359 4.11554 1.8125 6.90723 1.8125C9.69891 1.8125 11.9697 4.08359 11.9697 6.875C11.9697 9.66641 9.69891 11.9375 6.90723 11.9375C4.11554 11.9375 1.84473 9.66641 1.84473 6.875Z"/>
</svg>
